# xmcd
#
# Track frame offsets:
#	150
#	58762
#	123715
#	160188
#	210240
#
# Disc length: 3725 seconds
#
# Revision: 0
# Processed by: cddbd v1.5.1PL0 Copyright (c) Steve Scherf et al.
# Submitted via: dBpowerAMP V4.0
#
DISCID=400e8b05
DTITLE=Buddy Guy - Live at Legends - Jan 16, 2004 [CD1]
DYEAR=2004
DGENRE=Blues
TTITLE0=I Just Want To Make Love To You
TTITLE1=One Room Country Shack
TTITLE2=Walking Cane
TTITLE3=Fever
TTITLE4=Feels Like Rain
EXTD=Released under Pirate Entertainment under license from Silvetone Records\nwww.piratebootlegs.com
EXTT0=
EXTT1=
EXTT2=
EXTT3=
EXTT4=
PLAYORDER=
